ffmpeg started on 2016-12-02 at 10:08:24
Report written to "Output/x264/results/ffmpeg/old_town_cross_2160p50slower14000k.log"
Command line:
Tools/ffmpeg/ffmpeg -benchmark -y -i Input/y4m/old_town_cross_2160p50.y4m -c:v libx264 -preset slower -b:v 14000k -an Output/x264/encoded/old_town_cross_2160p50slower14000k.mkv
ffmpeg version N-82227-gdb23fde Copyright (c) 2000-2016 the FFmpeg developers
  built with gcc 5.4.0 (Ubuntu 5.4.0-6ubuntu1~16.04.2) 20160609
  configuration: --prefix=/home/jaroslav/ffmpeg_build --pkg-config-flags=--static --extra-cflags=-I/home/jaroslav/ffmpeg_build/include --extra-ldflags=-L/home/jaroslav/ffmpeg_build/lib --bindir=/home/jaroslav/bin --enable-gpl --enable-libass --enable-libfdk-aac --enable-libfreetype --enable-libmp3lame --enable-libopus --enable-libtheora --enable-libvorbis --enable-libvpx --enable-libx264 --enable-libx265 --enable-nvenc --enable-libmfx --enable-libxvid --enable-libgsm --enable-libopencore-amrnb --enable-version3 --enable-nonfree
  libavutil      55. 35.100 / 55. 35.100
  libavcodec     57. 66.101 / 57. 66.101
  libavformat    57. 57.100 / 57. 57.100
  libavdevice    57.  2.100 / 57.  2.100
  libavfilter     6. 66.100 /  6. 66.100
  libswscale      4.  3.100 /  4.  3.100
  libswresample   2.  4.100 /  2.  4.100
  libpostproc    54.  2.100 / 54.  2.100
Input #0, yuv4mpegpipe, from 'Input/y4m/old_town_cross_2160p50.y4m':
  Duration: 00:00:10.00, start: 0.000000, bitrate: 4976642 kb/s
    Stream #0:0: Video: rawvideo (I420 / 0x30323449), yuv420p(progressive), 3840x2160, SAR 1:1 DAR 16:9, 50 fps, 50 tbr, 50 tbn, 50 tbc
[libx264 @ 0x2a98120] using SAR=1/1
[libx264 @ 0x2a98120] DPB size (8 frames, 259200 mbs) > level limit (5 frames, 184320 mbs)
[libx264 @ 0x2a98120] using cpu capabilities: MMX2 SSE2Fast SSSE3 SSE4.2 AVX FMA3 AVX2 LZCNT BMI2
[libx264 @ 0x2a98120] profile High, level 5.2
[libx264 @ 0x2a98120] 264 - core 148 - H.264/MPEG-4 AVC codec - Copyleft 2003-2016 - http://www.videolan.org/x264.html - options: cabac=1 ref=8 deblock=1:0:0 analyse=0x3:0x133 me=umh subme=9 psy=1 psy_rd=1.00:0.00 mixed_ref=1 me_range=16 chroma_me=1 trellis=2 8x8dct=1 cqm=0 deadzone=21,11 fast_pskip=1 chroma_qp_offset=-2 threads=6 lookahead_threads=1 sliced_threads=0 nr=0 decimate=1 interlaced=0 bluray_compat=0 constrained_intra=0 bframes=3 b_pyramid=2 b_adapt=2 b_bias=0 direct=3 weightb=1 open_gop=0 weightp=2 keyint=250 keyint_min=25 scenecut=40 intra_refresh=0 rc_lookahead=60 rc=abr mbtree=1 bitrate=14000 ratetol=1.0 qcomp=0.60 qpmin=0 qpmax=69 qpstep=4 ip_ratio=1.40 aq=1:1.00
Output #0, matroska, to 'Output/x264/encoded/old_town_cross_2160p50slower14000k.mkv':
  Metadata:
    encoder         : Lavf57.57.100
    Stream #0:0: Video: h264 (libx264) (H264 / 0x34363248), yuv420p, 3840x2160 [SAR 1:1 DAR 16:9], q=-1--1, 14000 kb/s, 50 fps, 1k tbn, 50 tbc
    Metadata:
      encoder         : Lavc57.66.101 libx264
    Side data:
      cpb: bitrate max/min/avg: 0/0/14000000 buffer size: 0 vbv_delay: -1
Stream mapping:
  Stream #0:0 -> #0:0 (rawvideo (native) -> h264 (libx264))
Press [q] to stop, [?] for help
frame=   62 fps=0.0 q=0.0 size=       0kB time=00:00:00.00 bitrate=N/A speed=   0x    frame=   67 fps= 17 q=0.0 size=       0kB time=00:00:00.00 bitrate=N/A speed=   0x    frame=   72 fps= 12 q=31.0 size=       1kB time=-00:00:00.01 bitrate=N/A speed=N/A    frame=   73 fps=9.7 q=31.0 size=       1kB time=00:00:00.00 bitrate=5888.0kbits/s speed=0.000133x    frame=   75 fps=9.1 q=34.0 size=       1kB time=00:00:00.04 bitrate= 143.6kbits/s speed=0.00498x    frame=   77 fps=8.6 q=47.0 size=       1kB time=00:00:00.08 bitrate=  72.7kbits/s speed=0.00905x    frame=   78 fps=8.2 q=43.0 size=       1kB time=00:00:00.10 bitrate=  58.3kbits/s speed=0.0106x    frame=   79 fps=7.8 q=41.0 size=       1kB time=00:00:00.12 bitrate=  48.7kbits/s speed=0.012x    frame=   85 fps=7.6 q=48.0 size=       1kB time=00:00:00.24 bitrate=  24.4kbits/s speed=0.0217x    frame=   90 fps=7.7 q=47.0 size=       1kB time=00:00:00.34 bitrate=  17.3kbits/s speed=0.0292x    frame=   94 fps=7.7 q=46.0 size=       1kB time=00:00:00.42 bitrate=  14.0kbits/s speed=0.0345x    frame=   97 fps=7.6 q=45.0 size=       1kB time=00:00:00.48 bitrate=  12.2kbits/s speed=0.0375x    frame=  100 fps=7.5 q=43.0 size=       1kB time=00:00:00.54 bitrate=  10.9kbits/s speed=0.0404x    frame=  104 fps=7.4 q=42.0 size=       1kB time=00:00:00.62 bitrate=   9.5kbits/s speed=0.0441x    frame=  107 fps=7.2 q=42.0 size=       1kB time=00:00:00.68 bitrate=   8.6kbits/s speed=0.0457x    frame=  111 fps=7.2 q=41.0 size=       1kB time=00:00:00.76 bitrate=   7.7kbits/s speed=0.0493x    frame=  114 fps=7.1 q=41.0 size=       1kB time=00:00:00.82 bitrate=   7.2kbits/s speed=0.0515x    frame=  115 fps=6.9 q=40.0 size=       1kB time=00:00:00.84 bitrate=   7.0kbits/s speed=0.0505x    frame=  119 fps=6.9 q=40.0 size=       1kB time=00:00:00.92 bitrate=   6.4kbits/s speed=0.0531x    frame=  122 fps=6.6 q=40.0 size=       1kB time=00:00:00.98 bitrate=   6.0kbits/s speed=0.0534x    frame=  126 fps=6.6 q=39.0 size=       1kB time=00:00:01.06 bitrate=   5.5kbits/s speed=0.0555x    frame=  128 fps=6.5 q=39.0 size=       1kB time=00:00:01.10 bitrate=   5.3kbits/s speed=0.056x    frame=  131 fps=6.4 q=38.0 size=       1kB time=00:00:01.16 bitrate=   5.1kbits/s speed=0.0566x    frame=  134 fps=6.3 q=38.0 size=       1kB time=00:00:01.22 bitrate=   4.8kbits/s speed=0.0577x    frame=  138 fps=6.2 q=38.0 size=       1kB time=00:00:01.30 bitrate=   4.5kbits/s speed=0.0585x    frame=  142 fps=6.1 q=37.0 size=       1kB time=00:00:01.38 bitrate=   4.3kbits/s speed=0.0589x    frame=  146 fps=6.1 q=37.0 size=       1kB time=00:00:01.46 bitrate=   4.0kbits/s speed=0.0609x    frame=  148 fps=6.0 q=37.0 size=       1kB time=00:00:01.50 bitrate=   3.9kbits/s speed=0.0608x    frame=  150 fps=5.9 q=37.0 size=       1kB time=00:00:01.54 bitrate=   3.8kbits/s speed=0.0604x    frame=  154 fps=5.8 q=36.0 size=       1kB time=00:00:01.62 bitrate=   3.6kbits/s speed=0.0614x    frame=  155 fps=5.8 q=36.0 size=       1kB time=00:00:01.64 bitrate=   3.6kbits/s speed=0.061x    frame=  158 fps=5.7 q=36.0 size=       1kB time=00:00:01.70 bitrate=   3.5kbits/s speed=0.0611x    frame=  162 fps=5.7 q=36.0 size=       1kB time=00:00:01.78 bitrate=   3.3kbits/s speed=0.0622x    frame=  165 fps=5.5 q=36.0 size=       1kB time=00:00:01.84 bitrate=   3.2kbits/s speed=0.0614x    frame=  169 fps=5.5 q=35.0 size=       1kB time=00:00:01.92 bitrate=   3.1kbits/s speed=0.0624x    frame=  172 fps=5.4 q=35.0 size=       1kB time=00:00:01.98 bitrate=   3.0kbits/s speed=0.0627x    frame=  173 fps=5.4 q=35.0 size=       1kB time=00:00:02.00 bitrate=   2.9kbits/s speed=0.0622x    frame=  176 fps=5.3 q=35.0 size=       1kB time=00:00:02.06 bitrate=   2.9kbits/s speed=0.0626x    frame=  178 fps=5.3 q=35.0 size=       1kB time=00:00:02.10 bitrate=   2.8kbits/s speed=0.0628x    frame=  180 fps=5.2 q=35.0 size=       1kB time=00:00:02.14 bitrate=   2.8kbits/s speed=0.0621x    frame=  184 fps=5.2 q=35.0 size=       1kB time=00:00:02.22 bitrate=   2.7kbits/s speed=0.0628x    frame=  187 fps=5.1 q=35.0 size=       1kB time=00:00:02.28 bitrate=   2.6kbits/s speed=0.0626x    frame=  188 fps=5.1 q=34.0 size=       1kB time=00:00:02.30 bitrate=   2.6kbits/s speed=0.0621x    frame=  191 fps=5.1 q=34.0 size=       1kB time=00:00:02.36 bitrate=   2.5kbits/s speed=0.0627x    frame=  193 fps=5.0 q=34.0 size=       1kB time=00:00:02.40 bitrate=   2.5kbits/s speed=0.0628x    frame=  194 fps=5.0 q=34.0 size=       1kB time=00:00:02.42 bitrate=   2.4kbits/s speed=0.0621x    frame=  197 fps=5.0 q=34.0 size=       1kB time=00:00:02.48 bitrate=   2.4kbits/s speed=0.0624x    frame=  199 fps=4.9 q=34.0 size=       1kB time=00:00:02.52 bitrate=   2.3kbits/s speed=0.0623x    frame=  203 fps=4.9 q=34.0 size=       1kB time=00:00:02.60 bitrate=   2.3kbits/s speed=0.0626x    frame=  204 fps=4.8 q=34.0 size=       1kB time=00:00:02.62 bitrate=   2.2kbits/s speed=0.062x    frame=  208 fps=4.8 q=34.0 size=       1kB time=00:00:02.70 bitrate=   2.2kbits/s speed=0.0629x    frame=  210 fps=4.7 q=34.0 size=       1kB time=00:00:02.74 bitrate=   2.1kbits/s speed=0.062x    frame=  214 fps=4.8 q=34.0 size=       1kB time=00:00:02.82 bitrate=   2.1kbits/s speed=0.0627x    frame=  216 fps=4.7 q=34.0 size=       1kB time=00:00:02.86 bitrate=   2.1kbits/s speed=0.0625x    frame=  217 fps=4.7 q=34.0 size=       1kB time=00:00:02.88 bitrate=   2.0kbits/s speed=0.0621x    frame=  219 fps=4.6 q=34.0 size=       1kB time=00:00:02.92 bitrate=   2.0kbits/s speed=0.062x    frame=  222 fps=4.6 q=34.0 size=       1kB time=00:00:02.98 bitrate=   2.0kbits/s speed=0.0622x    frame=  223 fps=4.6 q=33.0 size=       1kB time=00:00:03.00 bitrate=   2.0kbits/s speed=0.0619x    frame=  226 fps=4.6 q=33.0 size=       1kB time=00:00:03.06 bitrate=   1.9kbits/s speed=0.0617x    frame=  228 fps=4.6 q=33.0 size=       1kB time=00:00:03.10 bitrate=   1.9kbits/s speed=0.0619x    frame=  230 fps=4.5 q=33.0 size=    5125kB time=00:00:03.14 bitrate=13366.3kbits/s speed=0.0618x    frame=  232 fps=4.5 q=33.0 size=    5125kB time=00:00:03.18 bitrate=13198.2kbits/s speed=0.0618x    frame=  234 fps=4.5 q=33.0 size=    5125kB time=00:00:03.22 bitrate=13034.3kbits/s speed=0.0618x    frame=  236 fps=4.5 q=33.0 size=    5125kB time=00:00:03.26 bitrate=12874.5kbits/s speed=0.0618x    frame=  239 fps=4.5 q=33.0 size=    5125kB time=00:00:03.32 bitrate=12641.9kbits/s speed=0.062x    frame=  242 fps=4.4 q=33.0 size=    5125kB time=00:00:03.38 bitrate=12417.5kbits/s speed=0.0618x    frame=  244 fps=4.4 q=33.0 size=    5125kB time=00:00:03.42 bitrate=12272.3kbits/s speed=0.0618x    frame=  246 fps=4.4 q=33.0 size=    5125kB time=00:00:03.46 bitrate=12130.5kbits/s speed=0.0617x    frame=  249 fps=4.4 q=33.0 size=    5125kB time=00:00:03.52 bitrate=11923.8kbits/s speed=0.0617x    frame=  252 fps=4.4 q=33.0 size=    5125kB time=00:00:03.58 bitrate=11724.0kbits/s speed=0.0621x    frame=  253 fps=4.3 q=33.0 size=    5125kB time=00:00:03.60 bitrate=11658.9kbits/s speed=0.0616x    frame=  254 fps=4.3 q=33.0 size=    5125kB time=00:00:03.62 bitrate=11594.5kbits/s speed=0.0614x    frame=  257 fps=4.3 q=33.0 size=    5125kB time=00:00:03.68 bitrate=11405.5kbits/s speed=0.0616x    frame=  260 fps=4.3 q=33.0 size=    5125kB time=00:00:03.74 bitrate=11222.6kbits/s speed=0.0617x    frame=  261 fps=4.2 q=33.0 size=    5125kB time=00:00:03.76 bitrate=11162.9kbits/s speed=0.0609x    frame=  265 fps=4.2 q=33.0 size=    5125kB time=00:00:03.84 bitrate=10930.4kbits/s speed=0.0615x    frame=  267 fps=4.2 q=33.0 size=    5125kB time=00:00:03.88 bitrate=10817.7kbits/s speed=0.0611x    frame=  269 fps=4.2 q=33.0 size=    5125kB time=00:00:03.92 bitrate=10707.4kbits/s speed=0.0611x    frame=  271 fps=4.2 q=33.0 size=    5125kB time=00:00:03.96 bitrate=10599.2kbits/s speed=0.0611x    frame=  273 fps=4.2 q=33.0 size=    5125kB time=00:00:04.00 bitrate=10493.3kbits/s speed=0.061x    frame=  275 fps=4.2 q=33.0 size=    5125kB time=00:00:04.04 bitrate=10389.4kbits/s speed=0.0611x    frame=  277 fps=4.1 q=33.0 size=    5125kB time=00:00:04.08 bitrate=10287.6kbits/s speed=0.0607x    frame=  280 fps=4.1 q=33.0 size=    5125kB time=00:00:04.14 bitrate=10138.5kbits/s speed=0.0609x    frame=  283 fps=4.1 q=33.0 size=    5125kB time=00:00:04.20 bitrate=9993.7kbits/s speed=0.061x    frame=  284 fps=4.1 q=33.0 size=    5125kB time=00:00:04.22 bitrate=9946.4kbits/s speed=0.0606x    frame=  286 fps=4.1 q=33.0 size=    5125kB time=00:00:04.26 bitrate=9853.0kbits/s speed=0.0607x    frame=  290 fps=4.0 q=33.0 size=    5125kB time=00:00:04.34 bitrate=9671.4kbits/s speed=0.0606x    frame=  293 fps=4.0 q=33.0 size=    5125kB time=00:00:04.40 bitrate=9539.6kbits/s speed=0.0608x    frame=  296 fps=4.0 q=33.0 size=    5125kB time=00:00:04.46 bitrate=9411.3kbits/s speed=0.0604x    frame=  300 fps=4.0 q=33.0 size=    5125kB time=00:00:04.54 bitrate=9245.5kbits/s speed=0.0608x    frame=  302 fps=4.0 q=33.0 size=    5125kB time=00:00:04.58 bitrate=9164.7kbits/s speed=0.0604x    frame=  305 fps=4.0 q=33.0 size=    5125kB time=00:00:04.64 bitrate=9046.2kbits/s speed=0.0606x    frame=  308 fps=4.0 q=33.0 size=    5125kB time=00:00:04.70 bitrate=8930.8kbits/s speed=0.0605x    frame=  311 fps=4.0 q=33.0 size=    5125kB time=00:00:04.76 bitrate=8818.2kbits/s speed=0.0606x    frame=  312 fps=3.9 q=33.0 size=    5125kB time=00:00:04.78 bitrate=8781.3kbits/s speed=0.0604x    frame=  314 fps=3.9 q=33.0 size=    5125kB time=00:00:04.82 bitrate=8708.5kbits/s speed=0.0605x    frame=  316 fps=3.9 q=34.0 size=    5125kB time=00:00:04.86 bitrate=8636.8kbits/s speed=0.0606x    frame=  317 fps=3.9 q=34.0 size=    5125kB time=00:00:04.88 bitrate=8601.4kbits/s speed=0.0604x    frame=  319 fps=3.9 q=34.0 size=    5125kB time=00:00:04.92 bitrate=8531.5kbits/s speed=0.0605x    frame=  320 fps=3.9 q=34.0 size=    8042kB time=00:00:04.94 bitrate=13332.7kbits/s speed=0.0602x    frame=  323 fps=3.9 q=34.0 size=    8042kB time=00:00:05.00 bitrate=13172.7kbits/s speed=0.0605x    frame=  326 fps=3.9 q=34.0 size=    8042kB time=00:00:05.06 bitrate=13016.6kbits/s speed=0.0605x    frame=  327 fps=3.9 q=34.0 size=    8042kB time=00:00:05.08 bitrate=12965.3kbits/s speed=0.0602x    frame=  331 fps=3.9 q=34.0 size=    8042kB time=00:00:05.16 bitrate=12764.4kbits/s speed=0.0606x    frame=  333 fps=3.9 q=34.0 size=    8042kB time=00:00:05.20 bitrate=12666.2kbits/s speed=0.0604x    frame=  335 fps=3.8 q=34.0 size=    8042kB time=00:00:05.24 bitrate=12569.5kbits/s speed=0.06x    frame=  338 fps=3.8 q=34.0 size=    8042kB time=00:00:05.30 bitrate=12427.2kbits/s speed=0.0604x    frame=  341 fps=3.8 q=34.0 size=    8042kB time=00:00:05.36 bitrate=12288.2kbits/s speed=0.0604x    frame=  342 fps=3.8 q=34.0 size=    8042kB time=00:00:05.38 bitrate=12242.5kbits/s speed=0.06x    frame=  344 fps=3.8 q=34.0 size=    8042kB time=00:00:05.42 bitrate=12152.2kbits/s speed=0.06x    frame=  347 fps=3.8 q=34.0 size=    8042kB time=00:00:05.48 bitrate=12019.1kbits/s speed=0.0603x    frame=  349 fps=3.8 q=34.0 size=    8042kB time=00:00:05.52 bitrate=11932.0kbits/s speed=0.0602x    frame=  350 fps=3.8 q=34.0 size=    8042kB time=00:00:05.54 bitrate=11889.0kbits/s speed=0.0599x    frame=  353 fps=3.8 q=34.0 size=    8042kB time=00:00:05.60 bitrate=11761.6kbits/s speed=0.06x    frame=  355 fps=3.8 q=34.0 size=    8042kB time=00:00:05.64 bitrate=11678.2kbits/s speed=0.06x    frame=  357 fps=3.8 q=34.0 size=    8042kB time=00:00:05.68 bitrate=11596.0kbits/s speed=0.0601x    frame=  359 fps=3.8 q=34.0 size=    8042kB time=00:00:05.72 bitrate=11514.9kbits/s speed=0.06x    frame=  361 fps=3.8 q=34.0 size=    8042kB time=00:00:05.76 bitrate=11435.0kbits/s speed=0.06x    frame=  363 fps=3.8 q=34.0 size=    8042kB time=00:00:05.80 bitrate=11356.1kbits/s speed=0.06x    frame=  364 fps=3.7 q=34.0 size=    8042kB time=00:00:05.82 bitrate=11317.1kbits/s speed=0.0599x    frame=  367 fps=3.7 q=34.0 size=    8042kB time=00:00:05.88 bitrate=11201.6kbits/s speed=0.0599x    frame=  369 fps=3.7 q=34.0 size=    8042kB time=00:00:05.92 bitrate=11126.0kbits/s speed=0.0598x    frame=  373 fps=3.7 q=34.0 size=    8042kB time=00:00:06.00 bitrate=10977.6kbits/s speed=0.0601x    frame=  374 fps=3.7 q=34.0 size=    8042kB time=00:00:06.02 bitrate=10941.2kbits/s speed=0.0598x    frame=  375 fps=3.7 q=34.0 size=    8042kB time=00:00:06.04 bitrate=10905.0kbits/s speed=0.0596x    frame=  380 fps=3.7 q=34.0 size=    8042kB time=00:00:06.14 bitrate=10727.4kbits/s speed=0.0602x    frame=  381 fps=3.7 q=34.0 size=    8042kB time=00:00:06.16 bitrate=10692.6kbits/s speed=0.0598x    frame=  383 fps=3.7 q=34.0 size=    8042kB time=00:00:06.20 bitrate=10623.6kbits/s speed=0.0597x    frame=  387 fps=3.7 q=34.0 size=    8042kB time=00:00:06.28 bitrate=10488.3kbits/s speed=0.0598x    frame=  390 fps=3.7 q=34.0 size=    8042kB time=00:00:06.34 bitrate=10389.0kbits/s speed=0.0597x    frame=  394 fps=3.7 q=34.0 size=    8042kB time=00:00:06.42 bitrate=10259.6kbits/s speed=0.0597x    frame=  396 fps=3.7 q=34.0 size=    8042kB time=00:00:06.46 bitrate=10196.1kbits/s speed=0.0598x    frame=  398 fps=3.7 q=34.0 size=    8042kB time=00:00:06.50 bitrate=10133.3kbits/s speed=0.0597x    frame=  401 fps=3.7 q=33.0 size=    8042kB time=00:00:06.56 bitrate=10040.7kbits/s speed=0.0598x    frame=  403 fps=3.6 q=33.0 size=    8042kB time=00:00:06.60 bitrate=9979.8kbits/s speed=0.0597x    frame=  406 fps=3.6 q=33.0 size=    8042kB time=00:00:06.66 bitrate=9889.9kbits/s speed=0.0599x    frame=  407 fps=3.6 q=33.0 size=    8042kB time=00:00:06.68 bitrate=9860.3kbits/s speed=0.0598x    frame=  408 fps=3.6 q=33.0 size=    8042kB time=00:00:06.70 bitrate=9830.9kbits/s speed=0.0597x    frame=  411 fps=3.6 q=33.0 size=    8042kB time=00:00:06.76 bitrate=9743.7kbits/s speed=0.0598x    frame=  413 fps=3.6 q=33.0 size=    8042kB time=00:00:06.80 bitrate=9686.3kbits/s speed=0.0598x    frame=  414 fps=3.6 q=33.0 size=    8042kB time=00:00:06.82 bitrate=9657.9kbits/s speed=0.0596x    frame=  418 fps=3.6 q=33.0 size=    8042kB time=00:00:06.90 bitrate=9546.0kbits/s speed=0.0598x    frame=  420 fps=3.6 q=33.0 size=    8042kB time=00:00:06.94 bitrate=9491.0kbits/s speed=0.0598x    frame=  421 fps=3.6 q=33.0 size=    8042kB time=00:00:06.96 bitrate=9463.7kbits/s speed=0.0597x    frame=  425 fps=3.6 q=33.0 size=    8042kB time=00:00:07.04 bitrate=9356.2kbits/s speed=0.0597x    frame=  427 fps=3.6 q=33.0 size=    8042kB time=00:00:07.08 bitrate=9303.3kbits/s speed=0.0598x    frame=  429 fps=3.6 q=33.0 size=    8042kB time=00:00:07.12 bitrate=9251.1kbits/s speed=0.0597x    frame=  432 fps=3.6 q=33.0 size=    8042kB time=00:00:07.18 bitrate=9173.8kbits/s speed=0.0599x    frame=  433 fps=3.6 q=33.0 size=    8042kB time=00:00:07.20 bitrate=9148.3kbits/s speed=0.0597x    frame=  436 fps=3.6 q=33.0 size=    8042kB time=00:00:07.26 bitrate=9072.7kbits/s speed=0.0599x    frame=  438 fps=3.6 q=33.0 size=    8042kB time=00:00:07.30 bitrate=9023.0kbits/s speed=0.0598x    frame=  440 fps=3.6 q=33.0 size=    8042kB time=00:00:07.34 bitrate=8973.8kbits/s speed=0.0598x    frame=  441 fps=3.6 q=33.0 size=    8042kB time=00:00:07.36 bitrate=8949.4kbits/s speed=0.0597x    frame=  443 fps=3.6 q=33.0 size=    8042kB time=00:00:07.40 bitrate=8901.1kbits/s speed=0.0598x    frame=  445 fps=3.6 q=33.0 size=    8042kB time=00:00:07.44 bitrate=8853.2kbits/s speed=0.0598x    frame=  447 fps=3.6 q=33.0 size=    8042kB time=00:00:07.48 bitrate=8805.9kbits/s speed=0.0599x    frame=  448 fps=3.6 q=33.0 size=    8042kB time=00:00:07.50 bitrate=8782.4kbits/s speed=0.0597x    frame=  450 fps=3.6 q=33.0 size=    8042kB time=00:00:07.54 bitrate=8735.8kbits/s speed=0.0597x    frame=  452 fps=3.6 q=33.0 size=    8042kB time=00:00:07.58 bitrate=8689.7kbits/s speed=0.0597x    frame=  455 fps=3.6 q=33.0 size=    8042kB time=00:00:07.64 bitrate=8621.5kbits/s speed=0.0598x    frame=  456 fps=3.6 q=33.0 size=    8042kB time=00:00:07.66 bitrate=8599.0kbits/s speed=0.0597x    frame=  458 fps=3.6 q=33.0 size=    8042kB time=00:00:07.70 bitrate=8554.3kbits/s speed=0.0597x    frame=  460 fps=3.5 q=33.0 size=    8042kB time=00:00:07.74 bitrate=8510.1kbits/s speed=0.0597x    frame=  462 fps=3.5 q=33.0 size=    8042kB time=00:00:07.78 bitrate=8466.4kbits/s speed=0.0596x    frame=  464 fps=3.5 q=33.0 size=    8042kB time=00:00:07.82 bitrate=8423.1kbits/s speed=0.0597x    frame=  466 fps=3.5 q=33.0 size=   13196kB time=00:00:07.86 bitrate=13751.5kbits/s speed=0.0596x    frame=  469 fps=3.5 q=33.0 size=   13196kB time=00:00:07.92 bitrate=13647.4kbits/s speed=0.0597x    frame=  470 fps=3.5 q=33.0 size=   13196kB time=00:00:07.94 bitrate=13613.0kbits/s speed=0.0596x    frame=  473 fps=3.5 q=33.0 size=   13196kB time=00:00:08.00 bitrate=13510.9kbits/s speed=0.0598x    frame=  474 fps=3.5 q=33.0 size=   13196kB time=00:00:08.02 bitrate=13477.2kbits/s speed=0.0596x    frame=  476 fps=3.5 q=33.0 size=   13196kB time=00:00:08.06 bitrate=13410.3kbits/s speed=0.0596x    frame=  478 fps=3.5 q=33.0 size=   13196kB time=00:00:08.10 bitrate=13344.1kbits/s speed=0.0596x    frame=  480 fps=3.5 q=33.0 size=   13196kB time=00:00:08.14 bitrate=13278.6kbits/s speed=0.0597x    frame=  482 fps=3.5 q=33.0 size=   13196kB time=00:00:08.18 bitrate=13213.6kbits/s speed=0.0595x    frame=  485 fps=3.5 q=33.0 size=   13196kB time=00:00:08.24 bitrate=13117.4kbits/s speed=0.0597x    frame=  486 fps=3.5 q=33.0 size=   13196kB time=00:00:08.26 bitrate=13085.7kbits/s speed=0.0596x    frame=  489 fps=3.5 q=33.0 size=   13196kB time=00:00:08.32 bitrate=12991.3kbits/s speed=0.0597x    frame=  490 fps=3.5 q=33.0 size=   13196kB time=00:00:08.34 bitrate=12960.2kbits/s speed=0.0596x    frame=  492 fps=3.5 q=33.0 size=   13196kB time=00:00:08.38 bitrate=12898.3kbits/s speed=0.0596x    frame=  494 fps=3.5 q=33.0 size=   13196kB time=00:00:08.42 bitrate=12837.0kbits/s speed=0.0596x    frame=  496 fps=3.5 q=33.0 size=   13196kB time=00:00:08.46 bitrate=12776.4kbits/s speed=0.0596x    frame=  497 fps=3.5 q=33.0 size=   13196kB time=00:00:08.48 bitrate=12746.2kbits/s speed=0.0595x    frame=  500 fps=3.5 q=33.0 size=   13196kB time=00:00:08.54 bitrate=12656.7kbits/s speed=0.0597x    frame=  500 fps=3.5 q=33.0 size=   13196kB time=00:00:08.54 bitrate=12656.7kbits/s speed=0.0594x    frame=  500 fps=3.0 q=-1.0 Lsize=   17028kB time=00:00:09.94 bitrate=14032.1kbits/s speed=0.06x    
video:17023kB audio:0kB subtitle:0kB other streams:0kB global headers:0kB muxing overhead: 0.026945%
bench: utime=643.524s
bench: maxrss=2614056kB
[libx264 @ 0x2a98120] frame I:3     Avg QP:28.43  size:755016
[libx264 @ 0x2a98120] frame P:138   Avg QP:32.64  size: 63824
[libx264 @ 0x2a98120] frame B:359   Avg QP:34.46  size: 17712
[libx264 @ 0x2a98120] consecutive B-frames:  1.0%  2.0% 23.4% 73.6%
[libx264 @ 0x2a98120] mb I  I16..4:  9.4% 86.4%  4.2%
[libx264 @ 0x2a98120] mb P  I16..4:  0.1%  0.2%  0.0%  P16..4: 45.5%  2.8%  9.0%  0.0%  0.0%    skip:42.2%
[libx264 @ 0x2a98120] mb B  I16..4:  0.0%  0.0%  0.0%  B16..8: 48.6%  0.3%  0.1%  direct: 0.2%  skip:50.7%  L0:48.9% L1:51.0% BI: 0.1%
[libx264 @ 0x2a98120] final ratefactor: 25.59
[libx264 @ 0x2a98120] 8x8 transform intra:82.8% inter:64.3%
[libx264 @ 0x2a98120] direct mvs  spatial:99.2% temporal:0.8%
[libx264 @ 0x2a98120] coded y,uvDC,uvAC intra: 95.7% 81.7% 67.6% inter: 4.5% 5.2% 0.1%
[libx264 @ 0x2a98120] i16 v,h,dc,p: 24% 26% 28% 21%
[libx264 @ 0x2a98120] i8 v,h,dc,ddl,ddr,vr,hd,vl,hu:  5%  7%  2% 14% 18% 14% 18% 10% 12%
[libx264 @ 0x2a98120] i4 v,h,dc,ddl,ddr,vr,hd,vl,hu:  3%  4%  1% 14% 16% 15% 20% 11% 16%
[libx264 @ 0x2a98120] i8c dc,h,v,p: 52% 22% 13% 12%
[libx264 @ 0x2a98120] Weighted P-Frames: Y:0.7% UV:0.0%
[libx264 @ 0x2a98120] ref P L0: 53.2% 16.5% 15.9%  3.7%  3.6%  2.8%  3.2%  1.1%  0.0%
[libx264 @ 0x2a98120] ref B L0: 74.8%  9.4%  8.1%  2.7%  2.5%  1.8%  0.8%
[libx264 @ 0x2a98120] ref B L1: 95.8%  4.2%
[libx264 @ 0x2a98120] kb/s:13945.02
